<svg width="26" height="21" viewBox="0 0 26 21" fill="none" xmlns="http://www.w3.org/2000/svg">
<path d="M25.768 2.5641C24.808 2.9801 23.816 3.2681 22.76 3.3961C23.848 2.7561 24.68 1.7321 25.064 0.484098C24.04 1.0921 22.92 1.5081 21.736 1.7641C20.776 0.740098 19.4 0.100098 17.896 0.100098C14.984 0.100098 12.648 2.4681 12.648 5.3481C12.648 5.7641 12.68 6.1481 12.776 6.5321C8.424 6.3401 4.584 4.2281 1.992 1.0601C0.135999 4.3881 2.216 7.1401 3.592 8.0681C2.76 8.0681 1.928 7.8121 1.224 7.4281C1.224 10.0201 3.048 12.1641 5.416 12.6441C4.904 12.8041 3.752 12.9001 3.048 12.7401C3.72 14.8201 5.672 16.3561 7.944 16.3881C6.152 17.7961 3.528 18.9161 0.167999 18.5641C2.504 20.0681 5.256 20.9321 8.232 20.9321C17.896 20.9321 23.144 12.9321 23.144 6.0201C23.144 5.7961 23.144 5.5721 23.112 5.3481C24.2 4.5481 25.096 3.6201 25.768 2.5641Z" fill="white"/>
</svg>
