<svg width="32" height="33" viewBox="0 0 32 33" fill="none" xmlns="http://www.w3.org/2000/svg">
<path d="M32 16.98C32.24 7.81997 24.88 0.379967 15.76 0.499967C7 0.619967 -0.08 7.85997 -3.71365e-08 16.62C0.04 22.9 3.72 28.3 9 30.9C9.32 31.06 9.68 30.82 9.64 30.46C9.6 29.42 9.64 28.34 9.84 27.46C10.04 26.58 10.84 23.22 11.36 21.02C11.6 19.94 11.64 18.82 11.44 17.74C11.36 17.38 11.32 16.98 11.32 16.5C11.32 14.14 12.68 12.38 14.4 12.38C15.84 12.38 16.56 13.46 16.56 14.78C16.56 16.22 15.64 18.42 15.16 20.46C14.76 22.14 16 23.54 17.68 23.54C20.72 23.54 23.04 20.34 23.04 15.74C23.04 11.66 20.12 8.81997 15.92 8.81997C11.08 8.81997 8.24 12.46 8.24 16.22C8.24 17.7 8.8 19.26 9.52 20.1C9.64 20.26 9.68 20.42 9.64 20.58C9.52 21.1 9.24 22.26 9.16 22.5C9.08 22.82 8.92 22.86 8.6 22.74C6.48 21.7 5.12 18.58 5.12 16.1C5.12 10.74 9 5.81997 16.36 5.81997C22.24 5.81997 26.84 10.02 26.84 15.66C26.84 21.54 23.16 26.22 18 26.22C16.64 26.22 15.36 25.66 14.6 24.9C14.36 24.66 13.96 24.78 13.88 25.1C13.6 26.1 13.2 27.78 13.04 28.3C12.8 29.26 12.28 30.38 11.72 31.38C11.56 31.62 11.72 31.98 12 32.02C13.32 32.34 14.68 32.54 16.08 32.5C24.56 32.42 31.76 25.38 32 16.98Z" fill="white"/>
</svg>
