<svg width="32" height="33" viewBox="0 0 32 33" fill="none" xmlns="http://www.w3.org/2000/svg">
<g clip-path="url(#clip0_1_900)">
<path fill-rule="evenodd" clip-rule="evenodd" d="M15.9489 0.984863C18.8335 1.01778 21.4394 1.72672 23.7667 3.11169C26.0662 4.46902 27.9791 6.39358 29.3224 8.70136C30.6989 11.0427 31.4036 13.6644 31.4364 16.5665C31.3547 20.5374 30.1022 23.9288 27.6791 26.741C25.256 29.5531 22.1526 31.2928 18.9399 31.9598V20.8268H21.9772L22.6641 16.4518H18.0649V13.5863C18.0394 12.9923 18.2272 12.4087 18.5945 11.9411C18.9623 11.4722 19.61 11.2258 20.5376 11.2018H23.3149V7.36941C23.2751 7.35659 22.8969 7.30589 22.1805 7.21731C21.3681 7.12225 20.551 7.07147 19.733 7.06521C17.8817 7.07375 16.4175 7.59599 15.3405 8.63192C14.2634 9.66756 13.7133 11.1659 13.6899 13.127V16.4518H10.1899V20.8268H13.6899V31.9598C9.74526 31.2928 6.64181 29.5531 4.21869 26.741C1.79556 23.9288 0.543188 20.5374 0.461426 16.5665C0.494138 13.6643 1.1988 11.0425 2.5754 8.70136C3.9187 6.39359 5.83158 4.46902 8.13113 3.11169C10.4584 1.72699 13.0643 1.01805 15.9489 0.984863Z" fill="white"/>
</g>
<defs>
<clipPath id="clip0_1_900">
<rect width="32" height="32" fill="white" transform="translate(0 0.5)"/>
</clipPath>
</defs>
</svg>
