<svg width="50" height="50" viewBox="0 0 50 50" fill="none" xmlns="http://www.w3.org/2000/svg">
<path d="M45.8649 26.2109C46.8024 24.9721 47.3214 23.4542 47.3214 21.875C47.3214 19.3694 45.9207 16.9978 43.6663 15.6752C43.0859 15.3348 42.4251 15.1556 41.7522 15.1562H28.3705L28.7053 8.29798C28.7835 6.64061 28.1975 5.06695 27.0591 3.86718C26.5005 3.27582 25.8265 2.80531 25.0788 2.48473C24.3311 2.16415 23.5256 2.00031 22.712 2.00334C19.8103 2.00334 17.2433 3.95646 16.4732 6.75222L11.6797 24.1071H4.46427C3.47655 24.1071 2.67856 24.9051 2.67856 25.8928V46.2053C2.67856 47.1931 3.47655 47.9911 4.46427 47.9911H38.019C38.5324 47.9911 39.0346 47.8906 39.4978 47.6897C42.154 46.5569 43.8672 43.962 43.8672 41.0826C43.8672 40.3795 43.7667 39.6875 43.5658 39.0178C44.5033 37.779 45.0223 36.2611 45.0223 34.6819C45.0223 33.9788 44.9219 33.2868 44.721 32.6172C45.6585 31.3783 46.1774 29.8605 46.1774 28.2812C46.1663 27.5781 46.0658 26.8806 45.8649 26.2109ZM6.69642 43.9732V28.125H11.2165V43.9732H6.69642ZM42.2098 24.2745L40.9877 25.3348L41.7634 26.7522C42.0189 27.2191 42.1514 27.7434 42.1484 28.2757C42.1484 29.1964 41.7466 30.0725 41.0547 30.6752L39.8326 31.7355L40.6082 33.1529C40.8638 33.6198 40.9963 34.1441 40.9933 34.6763C40.9933 35.5971 40.5915 36.4732 39.8995 37.0759L38.6774 38.1362L39.4531 39.5536C39.7087 40.0205 39.8412 40.5447 39.8382 41.077C39.8382 42.327 39.1016 43.4542 37.9632 43.9676H14.7879V27.9464L20.3404 7.82923C20.4836 7.31361 20.7909 6.8587 21.2159 6.53345C21.6408 6.2082 22.1602 6.03032 22.6953 6.02677C23.1194 6.02677 23.5379 6.14954 23.8728 6.40066C24.4252 6.8136 24.721 7.4386 24.6875 8.10267L24.1518 19.1741H41.6964C42.6897 19.7824 43.3036 20.8091 43.3036 21.875C43.3036 22.7957 42.9018 23.6663 42.2098 24.2745Z" fill="white"/>
</svg>
