<svg width="40" height="41" viewBox="0 0 40 41" fill="none" xmlns="http://www.w3.org/2000/svg">
<path d="M36 20.98C36.24 11.82 28.88 4.37997 19.76 4.49997C11 4.61997 3.92 11.86 4 20.62C4.04 26.9 7.72 32.3 13 34.9C13.32 35.06 13.68 34.82 13.64 34.46C13.6 33.42 13.64 32.34 13.84 31.46C14.04 30.58 14.84 27.22 15.36 25.02C15.6 23.94 15.64 22.82 15.44 21.74C15.36 21.38 15.32 20.98 15.32 20.5C15.32 18.14 16.68 16.38 18.4 16.38C19.84 16.38 20.56 17.46 20.56 18.78C20.56 20.22 19.64 22.42 19.16 24.46C18.76 26.14 20 27.54 21.68 27.54C24.72 27.54 27.04 24.34 27.04 19.74C27.04 15.66 24.12 12.82 19.92 12.82C15.08 12.82 12.24 16.46 12.24 20.22C12.24 21.7 12.8 23.26 13.52 24.1C13.64 24.26 13.68 24.42 13.64 24.58C13.52 25.1 13.24 26.26 13.16 26.5C13.08 26.82 12.92 26.86 12.6 26.74C10.48 25.7 9.12 22.58 9.12 20.1C9.12 14.74 13 9.81997 20.36 9.81997C26.24 9.81997 30.84 14.02 30.84 19.66C30.84 25.54 27.16 30.22 22 30.22C20.64 30.22 19.36 29.66 18.6 28.9C18.36 28.66 17.96 28.78 17.88 29.1C17.6 30.1 17.2 31.78 17.04 32.3C16.8 33.26 16.28 34.38 15.72 35.38C15.56 35.62 15.72 35.98 16 36.02C17.32 36.34 18.68 36.54 20.08 36.5C28.56 36.42 35.76 29.38 36 20.98Z" fill="white"/>
</svg>
