<svg width="32" height="33" viewBox="0 0 32 33" fill="none" xmlns="http://www.w3.org/2000/svg">
<path d="M28.768 8.5641C27.808 8.9801 26.816 9.2681 25.76 9.3961C26.848 8.7561 27.68 7.7321 28.064 6.4841C27.04 7.0921 25.92 7.5081 24.736 7.7641C23.776 6.7401 22.4 6.1001 20.896 6.1001C17.984 6.1001 15.648 8.4681 15.648 11.3481C15.648 11.7641 15.68 12.1481 15.776 12.5321C11.424 12.3401 7.584 10.2281 4.992 7.0601C3.136 10.3881 5.216 13.1401 6.592 14.0681C5.76 14.0681 4.928 13.8121 4.224 13.4281C4.224 16.0201 6.048 18.1641 8.416 18.6441C7.904 18.8041 6.752 18.9001 6.048 18.7401C6.72 20.8201 8.672 22.3561 10.944 22.3881C9.152 23.7961 6.528 24.9161 3.168 24.5641C5.504 26.0681 8.256 26.9321 11.232 26.9321C20.896 26.9321 26.144 18.9321 26.144 12.0201C26.144 11.7961 26.144 11.5721 26.112 11.3481C27.2 10.5481 28.096 9.6201 28.768 8.5641Z" fill="white"/>
</svg>
