<svg width="32" height="33" viewBox="0 0 32 33" fill="none" xmlns="http://www.w3.org/2000/svg">
<g clip-path="url(#clip0_1_907)">
<path d="M16.3149 32.4999C16.209 32.4999 16.103 32.4999 15.9963 32.4994C13.488 32.5055 11.1704 32.4418 8.9165 32.3046C6.8501 32.1789 4.96387 31.4648 3.46143 30.2397C2.01172 29.0575 1.02173 27.4591 0.519043 25.4894C0.081543 23.7746 0.0583496 22.0912 0.0361328 20.463C0.0200195 19.2948 0.00341797 17.9106 0 16.5028C0.00341797 15.0893 0.0200195 13.705 0.0361328 12.5368C0.0583496 10.9088 0.081543 9.2255 0.519043 7.51041C1.02173 5.54068 2.01172 3.94229 3.46143 2.76016C4.96387 1.53507 6.8501 0.820955 8.91675 0.695223C11.1707 0.55826 13.4888 0.494295 16.0024 0.500399C18.5115 0.495027 20.8284 0.55826 23.0823 0.695223C25.1487 0.820955 27.0349 1.53507 28.5373 2.76016C29.9873 3.94229 30.977 5.54068 31.4797 7.51041C31.9172 9.22525 31.9404 10.9088 31.9626 12.5368C31.9788 13.705 31.9956 15.0893 31.9988 16.497V16.5028C31.9956 17.9106 31.9788 19.2948 31.9626 20.463C31.9404 22.091 31.9175 23.7743 31.4797 25.4894C30.977 27.4591 29.9873 29.0575 28.5373 30.2397C27.0349 31.4648 25.1487 32.1789 23.0823 32.3046C20.9238 32.4359 18.7065 32.4999 16.3149 32.4999ZM15.9963 29.9994C18.4639 30.0053 20.7295 29.943 22.9304 29.8092C24.4929 29.7143 25.8477 29.2072 26.9575 28.3022C27.9834 27.4655 28.6899 26.3112 29.0574 24.8712C29.4216 23.4438 29.4426 21.911 29.4629 20.4289C29.4788 19.2685 29.4954 17.894 29.4988 16.4999C29.4954 15.1056 29.4788 13.7314 29.4629 12.571C29.4426 11.0888 29.4216 9.55606 29.0574 8.12833C28.6899 6.68839 27.9834 5.53409 26.9575 4.69742C25.8477 3.79263 24.4929 3.28555 22.9304 3.19058C20.7295 3.05655 18.4639 2.99478 16.0022 3.00015C13.5352 2.99429 11.2693 3.05655 9.06836 3.19058C7.50586 3.28555 6.15112 3.79263 5.04126 4.69742C4.01538 5.53409 3.30884 6.68839 2.94141 8.12833C2.57715 9.55606 2.55615 11.0885 2.53589 12.571C2.52002 13.7323 2.50342 15.1076 2.5 16.5028C2.50342 17.892 2.52002 19.2675 2.53589 20.4289C2.55615 21.911 2.57715 23.4438 2.94141 24.8712C3.30884 26.3112 4.01538 27.4655 5.04126 28.3022C6.15112 29.2069 7.50586 29.714 9.06836 29.809C11.2693 29.943 13.5356 30.0055 15.9963 29.9994ZM15.9368 24.3124C11.6291 24.3124 8.12427 20.8078 8.12427 16.4999C8.12427 12.192 11.6291 8.68741 15.9368 8.68741C20.2446 8.68741 23.7493 12.192 23.7493 16.4999C23.7493 20.8078 20.2446 24.3124 15.9368 24.3124ZM15.9368 11.1874C13.0076 11.1874 10.6243 13.5707 10.6243 16.4999C10.6243 19.4291 13.0076 21.8124 15.9368 21.8124C18.8662 21.8124 21.2493 19.4291 21.2493 16.4999C21.2493 13.5707 18.8662 11.1874 15.9368 11.1874ZM24.6243 6.18741C23.5889 6.18741 22.7493 7.02676 22.7493 8.06241C22.7493 9.09805 23.5889 9.93741 24.6243 9.93741C25.6599 9.93741 26.4993 9.09805 26.4993 8.06241C26.4993 7.02676 25.6599 6.18741 24.6243 6.18741Z" fill="white"/>
</g>
<defs>
<clipPath id="clip0_1_907">
<rect width="32" height="32" fill="white" transform="translate(0 0.5)"/>
</clipPath>
</defs>
</svg>
